<?xml version="1.0" standalone="no"?>
<!DOCTYPE svg PUBLIC "-//W3C//DTD SVG 20010904//EN"
 "http://www.w3.org/TR/2001/REC-SVG-20010904/DTD/svg10.dtd">
<svg version="1.0" xmlns="http://www.w3.org/2000/svg"
 width="500.000000pt" height="500.000000pt" viewBox="0 0 500.000000 500.000000"
 preserveAspectRatio="xMidYMid meet">

<g transform="translate(0.000000,500.000000) scale(0.100000,-0.100000)"
fill="#000000" stroke="none">
<path d="M2206 4363 c-2 -3 -27 -6 -55 -8 -27 -2 -60 -9 -73 -16 -22 -12 -22
-12 -3 -20 12 -4 14 -8 6 -8 -11 -1 -10 -5 5 -16 16 -13 17 -16 4 -24 -8 -6
-25 -8 -36 -5 -22 6 -64 -10 -64 -24 0 -12 113 0 136 15 17 11 23 11 26 1 4
-10 20 -9 76 6 60 15 77 16 102 6 17 -7 44 -10 62 -6 18 3 39 7 46 8 6 1 12 8
12 16 0 11 13 12 74 7 50 -5 76 -4 80 4 5 7 -3 11 -21 12 -15 0 -22 3 -15 6 6
2 10 9 7 13 -3 5 10 6 30 3 23 -4 35 -2 35 6 0 6 -9 11 -20 11 -11 0 -20 4
-20 9 0 4 -48 9 -106 10 -68 1 -103 -2 -99 -9 4 -6 -6 -8 -27 -5 -51 8 -157
13 -162 8z m-71 -73 c-3 -5 -12 -10 -18 -10 -7 0 -6 4 3 10 19 12 23 12 15 0z
m59 -7 c-5 -5 -12 -12 -16 -18 -4 -6 -8 -2 -8 8 0 9 7 17 17 17 9 0 12 -3 7
-7z"/>
<path d="M2854 4301 c13 -20 -11 -30 -53 -20 -57 13 -154 10 -201 -6 -24 -8
-52 -12 -63 -9 -14 4 -17 3 -12 -6 5 -8 4 -11 -2 -7 -6 4 -25 2 -44 -4 -55
-16 -93 -19 -100 -8 -11 18 -120 14 -154 -6 l-30 -17 57 6 c34 4 59 2 63 -4 4
-6 -10 -10 -34 -10 -22 0 -43 -5 -46 -10 -4 -6 -15 -8 -25 -5 -10 3 -24 0 -31
-7 -16 -15 -81 -20 -72 -6 3 6 -4 5 -16 -2 -12 -6 -18 -16 -15 -22 4 -6 3 -8
-3 -5 -11 7 -56 -26 -48 -34 2 -3 -5 -5 -15 -5 -11 0 -20 4 -20 8 0 4 5 8 10
8 6 0 10 5 10 11 0 6 -13 1 -29 -10 -16 -12 -35 -21 -43 -21 -8 0 -19 -5 -26
-12 -7 -7 -12 -9 -12 -5 0 5 12 19 28 32 27 24 27 24 4 25 -13 0 -21 -4 -18
-8 3 -5 -14 -8 -37 -8 -23 1 -53 -4 -67 -11 -24 -13 -24 -13 12 -11 21 1 41
-2 45 -6 4 -5 1 -7 -7 -4 -8 3 -27 1 -42 -3 -18 -5 -31 -3 -38 6 -13 16 -53 5
-131 -37 -26 -14 -67 -31 -93 -39 -33 -10 -61 -29 -102 -71 -31 -32 -63 -58
-70 -58 -8 0 -14 -6 -14 -12 0 -9 -4 -8 -10 2 -5 8 -10 10 -10 4 0 -7 -18 -21
-40 -31 l-39 -20 11 21 c6 12 17 29 26 39 8 9 12 17 8 17 -4 0 -2 9 4 20 8 14
-4 9 -44 -18 -29 -20 -51 -41 -48 -47 3 -5 2 -7 -3 -3 -11 11 -45 -10 -45 -28
0 -8 -4 -13 -9 -9 -5 3 -12 1 -16 -4 -3 -5 3 -14 12 -20 17 -10 16 -10 -3 -11
-24 0 -44 -18 -44 -40 0 -8 -9 -33 -21 -55 l-21 -40 21 23 c12 12 23 22 26 22
9 0 -2 -29 -18 -44 -15 -16 -37 -76 -37 -104 0 -7 -5 -10 -12 -6 -7 4 -8 3 -4
-5 4 -6 3 -17 -2 -24 -5 -7 -13 -27 -17 -44 -3 -18 -11 -36 -17 -39 -23 -14 9
126 33 146 7 5 29 46 29 53 0 2 -7 4 -15 4 -8 0 -15 -7 -15 -16 0 -9 -22 -38
-49 -66 -27 -27 -47 -54 -44 -58 7 -12 -66 -119 -77 -112 -5 3 -7 -1 -4 -9 7
-18 -43 -126 -58 -126 -6 0 -7 -7 -4 -16 3 -8 2 -12 -4 -9 -6 3 -10 -1 -10 -9
0 -9 -5 -16 -11 -16 -5 0 -7 -4 -4 -10 3 -5 1 -10 -6 -10 -6 0 -9 -8 -6 -19 2
-10 0 -27 -6 -37 -13 -23 -17 -84 -5 -84 4 0 8 -5 8 -11 0 -5 -4 -8 -9 -5 -5
4 -5 -12 0 -35 8 -34 5 -54 -17 -118 -30 -85 -37 -97 -34 -61 1 14 2 29 1 34
-2 13 -41 -40 -41 -56 0 -8 -7 -23 -16 -34 -8 -10 -13 -14 -10 -9 2 6 1 17 -5
25 -5 8 -9 11 -10 5 -5 -59 -15 -111 -24 -124 -11 -18 37 -118 54 -114 5 2 4
-9 -4 -23 -8 -16 -10 -36 -6 -52 5 -15 3 -37 -2 -49 -7 -17 -6 -31 3 -50 16
-33 19 -45 25 -98 2 -22 6 -47 8 -55 12 -49 20 -70 26 -70 4 0 8 -16 9 -35 2
-49 18 -104 42 -143 11 -18 20 -39 20 -48 0 -9 5 -12 12 -8 7 4 8 3 4 -4 -4
-7 -4 -18 1 -24 4 -7 8 -19 9 -26 2 -8 10 -22 18 -31 20 -22 20 -31 -1 -31
-15 0 -15 -1 1 -19 9 -10 16 -22 15 -27 -3 -11 7 -40 27 -77 7 -16 14 -38 14
-48 0 -13 4 -18 12 -13 10 5 10 4 1 -6 -14 -15 4 -63 22 -56 6 2 12 -2 12 -10
0 -7 -5 -10 -11 -7 -5 4 0 -7 12 -24 12 -17 19 -33 15 -37 -3 -3 -2 -6 4 -6 6
0 13 -9 16 -21 3 -12 10 -18 16 -14 10 6 15 -7 12 -28 -1 -4 6 -10 14 -13 8
-4 15 -13 15 -21 0 -10 6 -13 16 -9 8 3 13 2 9 -3 -3 -5 13 -23 34 -41 22 -17
43 -41 47 -53 3 -12 16 -30 28 -40 11 -10 15 -16 9 -12 -7 3 -13 1 -13 -5 0
-6 10 -14 23 -19 12 -5 29 -19 37 -32 19 -29 60 -69 71 -69 5 0 9 8 9 18 1 16
1 16 11 -1 6 -10 9 -24 6 -31 -7 -17 37 -56 69 -62 15 -3 32 -8 38 -12 6 -3
22 -8 35 -10 14 -2 39 -18 55 -37 34 -37 147 -98 214 -115 38 -10 41 -13 32
-30 -9 -16 -7 -20 5 -20 8 0 15 -5 15 -11 0 -5 5 -7 10 -4 5 3 10 -1 10 -10 0
-11 6 -15 19 -10 10 3 24 -1 31 -10 7 -8 16 -13 20 -10 5 3 15 -4 24 -16 9
-14 21 -19 31 -15 10 4 14 2 9 -5 -4 -8 1 -9 16 -4 12 4 20 3 17 -1 -6 -11 45
-10 63 1 9 6 11 4 5 -5 -6 -10 -2 -11 19 -6 18 4 25 3 21 -4 -3 -5 2 -10 14
-10 10 0 21 4 23 9 2 5 18 6 35 4 18 -3 31 -9 28 -13 -2 -4 15 -4 38 1 55 11
69 11 63 0 -7 -11 100 -45 118 -38 8 3 23 -1 35 -9 11 -8 21 -11 21 -6 0 6 43
8 100 7 58 -2 100 1 100 7 0 5 -4 7 -9 4 -12 -8 -71 14 -71 25 0 5 -6 9 -12 9
-7 0 -22 8 -33 17 l-20 16 20 -8 c11 -4 28 -8 37 -9 9 0 14 -4 11 -9 -3 -5 15
-7 43 -3 99 11 134 23 134 43 0 11 7 13 29 8 20 -4 38 -1 55 10 17 11 26 13
26 6 0 -9 5 -9 20 -1 11 6 24 9 29 6 9 -6 61 9 151 43 93 36 80 23 -43 -39
-65 -33 -122 -58 -128 -55 -5 4 -9 -1 -9 -10 0 -12 5 -15 16 -11 9 3 25 6 35
6 11 0 18 4 15 9 -6 10 26 21 62 21 13 0 20 -4 17 -10 -11 -17 23 -23 54 -9
20 9 26 16 18 21 -8 5 -7 8 4 8 26 0 124 70 124 88 0 10 11 19 25 22 14 3 61
25 105 49 44 24 86 44 92 44 7 0 11 3 8 5 -7 8 36 52 51 52 6 0 17 7 24 15 7
9 21 13 35 9 13 -3 26 0 30 6 5 9 1 10 -16 5 -23 -7 -24 -7 -6 13 10 11 39 26
65 33 58 16 91 44 74 61 -9 9 -16 8 -30 -5 -23 -21 -28 -21 -36 -1 -5 12 -2
15 10 10 11 -4 24 1 36 14 10 11 25 20 33 20 8 0 15 5 15 10 0 7 -6 7 -20 0
-12 -7 -20 -7 -20 -1 0 9 18 25 30 26 26 4 49 20 61 43 8 15 28 42 45 60 24
25 34 29 41 20 6 -7 9 -22 7 -33 -3 -20 -3 -20 12 0 9 12 18 16 22 10 4 -6 14
-11 23 -10 17 0 79 45 79 58 0 5 10 23 23 40 12 18 27 41 34 52 6 11 16 19 22
17 6 -1 11 1 12 5 4 42 12 68 25 80 8 8 12 19 9 24 -3 5 -2 17 3 26 6 10 12
36 14 59 3 23 8 46 12 53 4 6 2 11 -3 11 -6 0 -11 -4 -11 -10 0 -5 -5 -10 -10
-10 -7 0 -7 6 -1 19 6 10 7 21 4 25 -3 3 -2 6 3 6 5 0 10 9 11 20 3 30 -4 24
-31 -27 -14 -27 -25 -43 -26 -38 0 6 -5 3 -10 -5 -8 -13 -10 -12 -10 3 0 9 4
17 8 17 5 0 20 26 35 57 14 32 32 69 40 83 27 47 38 92 25 107 -6 8 -7 13 -2
12 5 -1 14 -1 20 0 13 1 38 96 29 111 -3 5 -1 10 4 10 6 0 11 7 11 15 0 8 5
15 11 15 7 0 8 -7 4 -17 -15 -37 -15 -57 -1 -25 9 18 15 36 15 40 -2 13 13 52
20 52 17 0 30 74 31 170 1 139 -6 200 -30 256 -11 25 -18 50 -15 54 3 5 -1 15
-9 23 -8 8 -12 17 -9 21 4 3 2 6 -4 6 -5 0 -10 7 -10 15 0 19 2 19 22 -1 14
-15 15 -14 11 10 -2 14 -9 31 -15 38 -49 59 -61 78 -52 78 6 0 18 -11 27 -25
19 -30 34 -32 34 -6 0 28 -11 52 -21 45 -5 -3 -9 -1 -9 5 0 22 20 20 36 -4 19
-29 42 -19 29 12 -5 10 -9 25 -10 33 -4 27 -49 124 -53 112 -5 -15 -22 -16
-22 -2 0 6 -9 29 -20 52 -11 22 -17 45 -14 49 3 5 0 9 -5 9 -6 0 -11 7 -11 15
0 8 -5 14 -12 13 -6 -2 -13 6 -15 17 -1 11 0 14 3 8 3 -7 11 -13 18 -13 10 0
11 10 6 40 -5 27 -4 40 4 40 6 0 3 7 -8 15 -16 12 -16 16 -5 28 8 7 21 12 29
9 8 -3 12 -1 8 3 -4 4 -21 9 -38 11 -41 5 -50 11 -50 34 0 20 -78 107 -101
112 -16 3 -38 28 -39 43 0 6 5 3 10 -5 8 -11 9 -9 6 10 -3 14 -5 29 -5 34 -1
5 -4 6 -8 3 -8 -8 -32 23 -33 42 0 11 5 10 20 -4 25 -23 26 -15 1 14 -17 20
-20 20 -28 6 -8 -14 -12 -13 -29 7 -19 22 -19 22 0 8 18 -14 19 -13 13 2 -3
10 -1 20 5 24 7 5 8 2 3 -6 -5 -9 -4 -11 4 -6 9 6 9 11 0 22 -6 8 -14 12 -17
9 -3 -3 -11 4 -19 15 -8 11 -20 20 -28 20 -8 0 -17 5 -21 11 -4 8 3 9 26 4
l32 -7 -22 30 c-23 31 -58 54 -44 29 7 -12 -12 4 -64 51 -14 12 -20 22 -14 22
6 0 17 -7 25 -15 8 -8 17 -11 21 -8 3 3 14 0 23 -8 17 -13 17 -13 3 6 -38 50
-74 84 -101 95 -16 7 -29 16 -29 21 0 5 -6 6 -14 3 -8 -3 -28 2 -45 11 -18 9
-36 13 -41 10 -6 -4 -16 0 -24 7 -45 43 -70 59 -87 55 -11 -3 -53 12 -96 34
-43 21 -70 39 -60 39 10 0 31 -7 48 -15 16 -9 34 -13 40 -10 5 4 8 1 7 -6 -2
-7 5 -14 15 -15 10 -1 12 0 3 3 -8 2 -13 10 -10 17 3 9 -8 17 -33 24 -84 23
-162 56 -151 63 6 4 23 3 37 -3 14 -5 34 -11 45 -14 18 -3 18 -3 0 17 -18 20
-18 20 10 10 31 -13 53 -14 42 -4 -12 12 -99 43 -107 37 -4 -2 -11 1 -15 7 -5
8 -3 9 6 4 8 -5 11 -4 7 2 -4 6 -22 13 -41 16 -19 3 -50 12 -68 20 -45 21 -78
27 -78 16 0 -6 -7 -6 -18 0 -10 5 -24 6 -32 1 -8 -5 -22 -4 -33 1 -10 6 -25 8
-33 5 -9 -3 -12 -1 -9 4 8 13 -38 30 -64 23 -13 -3 -21 -1 -21 8 0 7 -3 9 -7
6 -3 -4 -13 -1 -21 6 -13 10 -14 9 -8 -2z m-494 -73 c10 -6 7 -7 -10 -2 -14 3
-32 11 -40 16 -10 6 -7 7 10 2 14 -3 32 -11 40 -16z m185 -6 c-3 -3 -11 0 -18
7 -9 10 -8 11 6 5 10 -3 15 -9 12 -12z m-391 -68 c3 -8 2 -13 -3 -9 -5 3 -16
-2 -24 -10 -9 -9 -17 -11 -19 -4 -2 5 -11 7 -21 4 -9 -4 -14 -12 -10 -18 4 -6
1 -7 -7 -2 -10 6 -7 12 11 26 13 10 33 20 44 22 11 2 21 5 21 6 1 0 5 -6 8
-15z m-424 -81 c-8 -3 -27 -15 -42 -25 -16 -11 -28 -15 -28 -9 0 19 32 41 58
40 16 0 21 -3 12 -6z m1930 -158 c19 -14 31 -25 27 -25 -5 0 -21 10 -36 21
-17 13 -34 18 -42 14 -8 -5 -10 -4 -5 3 10 17 18 15 56 -13z m-2006 -11 c5
-13 3 -14 -6 -6 -9 7 -19 6 -32 -4 -11 -8 -16 -14 -11 -14 5 0 -1 -8 -15 -17
-17 -12 -25 -13 -28 -5 -2 7 -9 10 -15 6 -7 -3 1 6 17 20 17 14 33 23 36 21 3
-2 12 0 20 6 21 12 27 11 34 -7z m206 2 c0 -2 -9 -6 -20 -9 -11 -3 -18 -1 -14
4 5 9 34 13 34 5z m-60 -10 c0 -2 -7 -7 -16 -10 -8 -3 -12 -2 -9 4 6 10 25 14
25 6z m-431 -47 c-16 -10 -23 -4 -14 10 3 6 11 8 17 5 6 -4 5 -9 -3 -15z m181
-15 c0 -2 -7 -4 -15 -4 -8 0 -15 4 -15 10 0 5 7 7 15 4 8 -4 15 -8 15 -10z
m-188 -15 c-9 -11 -22 -19 -29 -19 -7 0 -13 -6 -13 -13 0 -8 -10 -22 -22 -33
-12 -10 -18 -13 -13 -5 6 10 2 12 -16 6 -19 -6 -15 2 21 37 25 25 55 45 66 45
20 0 21 -1 6 -18z m1215 -81 c-3 -7 -5 -2 -5 12 0 14 2 19 5 13 2 -7 2 -19 0
-25z m1263 -22 c0 -1 -12 -1 -26 -1 -14 1 -37 14 -52 29 l-27 27 53 -27 c28
-14 52 -27 52 -28z m-2580 -16 c-13 -9 -13 -11 0 -21 12 -8 10 -9 -9 -4 -16 5
-21 4 -17 -4 4 -6 1 -11 -7 -11 -8 0 -22 -11 -31 -25 -9 -14 -24 -25 -32 -25
-15 0 -15 2 -1 23 8 12 21 21 27 19 7 -2 10 3 7 11 -7 18 11 37 28 31 7 -3 16
-1 20 5 3 6 12 11 18 11 7 0 6 -4 -3 -10z m451 -37 c-8 -15 -10 -15 -11 -2 0
17 10 32 18 25 2 -3 -1 -13 -7 -23z m2154 -73 c3 -6 -1 -7 -9 -4 -18 7 -21 14
-7 14 6 0 13 -4 16 -10z m69 -29 c10 -11 16 -24 15 -29 -2 -5 -14 4 -27 20
-26 31 -15 39 12 9z m-1958 -18 c-10 -10 -19 5 -10 18 6 11 8 11 12 0 2 -7 1
-15 -2 -18z m-786 13 c0 -2 -7 -6 -15 -10 -8 -3 -15 -1 -15 4 0 6 7 10 15 10
8 0 15 -2 15 -4z m744 -51 c-4 -8 -8 -15 -10 -15 -2 0 -4 7 -4 15 0 8 4 15 10
15 5 0 7 -7 4 -15z m1619 -18 c3 -8 2 -20 -3 -26 -5 -9 -7 -4 -7 13 0 29 2 32
10 13z m407 3 c0 -5 -4 -10 -10 -10 -5 0 -10 5 -10 10 0 6 5 10 10 10 6 0 10
-4 10 -10z m-1895 -10 c-3 -5 -13 -10 -21 -10 -8 0 -14 5 -14 10 0 6 9 10 21
10 11 0 17 -4 14 -10z m670 -28 c169 -44 331 -129 438 -231 31 -30 60 -51 64
-47 4 4 1 11 -7 16 -8 6 -10 10 -5 10 13 0 35 -21 35 -33 0 -4 -6 -5 -12 -2
-7 4 -1 -5 15 -19 15 -14 28 -29 29 -33 1 -5 17 -32 37 -61 32 -49 36 -52 48
-36 15 20 18 7 4 -15 -7 -10 1 -35 23 -80 18 -36 43 -95 55 -131 12 -36 24
-72 27 -80 11 -29 19 -156 17 -265 -5 -277 -161 -564 -403 -744 -67 -51 -208
-121 -315 -158 -76 -26 -90 -27 -260 -28 -208 0 -272 13 -431 90 -306 148
-509 422 -560 756 -20 130 -13 242 21 369 71 263 246 492 472 620 54 31 78 50
76 60 -4 13 -3 13 5 1 9 -12 18 -11 64 7 53 22 152 47 218 55 79 11 266 -1
345 -21z m-1744 -79 c-9 -16 -10 -16 -11 -1 0 9 3 25 7 35 7 16 8 17 11 1 2
-10 -1 -25 -7 -35z m3069 17 c0 -5 -2 -10 -4 -10 -3 0 -8 5 -11 10 -3 6 -1 10
4 10 6 0 11 -4 11 -10z m-392 -25 c-3 -3 -9 2 -12 12 -6 14 -5 15 5 6 7 -7 10
-15 7 -18z m-403 -61 c-15 -11 -15 -13 2 -23 10 -6 14 -10 8 -11 -5 0 -16 4
-24 9 -12 8 -12 12 -2 25 7 9 10 24 7 33 -5 15 -3 14 9 -2 14 -18 14 -21 0
-31z m325 15 c0 -6 -4 -7 -10 -4 -5 3 -10 11 -10 16 0 6 5 7 10 4 6 -3 10 -11
10 -16z m-260 -30 c14 -26 12 -33 -5 -19 -8 7 -12 17 -9 24 3 6 -1 3 -9 -7
-14 -17 -15 -17 -13 6 1 28 21 26 36 -4z m334 6 c3 -8 1 -15 -4 -15 -6 0 -10
7 -10 15 0 8 2 15 4 15 2 0 6 -7 10 -15z m-123 -19 c-9 -11 -9 -16 0 -22 7 -4
9 -3 6 3 -9 15 17 23 34 11 11 -8 10 -9 -3 -4 -10 3 -18 1 -18 -4 0 -6 10 -10
22 -10 19 0 21 -11 1 -12 -4 0 -15 -4 -24 -9 -12 -6 -19 -2 -29 15 -13 25 -7
46 12 46 7 0 6 -5 -1 -14z m512 -42 c2 -13 0 -27 -4 -30 -5 -3 -9 2 -9 10 0
25 -1 30 -13 51 -9 17 -8 18 5 7 9 -7 18 -24 21 -38z m-834 0 c4 3 13 0 21 -5
12 -8 9 -9 -9 -7 -14 2 -26 9 -27 16 -1 7 0 8 3 2 2 -5 8 -8 12 -6z m134 3 c3
-8 -1 -14 -8 -14 -7 0 -11 6 -8 14 3 7 6 13 8 13 2 0 5 -6 8 -13z m-52 -14
c13 -15 12 -15 -8 -4 -24 12 -29 21 -14 21 5 0 15 -7 22 -17z m418 -52 c1 -10
-2 -11 -13 -2 -12 10 -14 25 -6 51 2 8 19 -33 19 -49z m411 29 c6 -11 8 -20 6
-20 -3 0 -10 9 -16 20 -6 11 -8 20 -6 20 3 0 10 -9 16 -20z m-550 -5 c0 -8 -2
-15 -4 -15 -2 0 -6 7 -10 15 -3 8 -1 15 4 15 6 0 10 -7 10 -15z m-260 1 c0
-11 -19 -15 -25 -6 -3 5 1 10 9 10 9 0 16 -2 16 -4z m395 -56 c3 -5 -1 -10 -9
-10 -9 0 -16 5 -16 10 0 6 4 10 9 10 6 0 13 -4 16 -10z m-325 -10 c0 -5 -2
-10 -4 -10 -3 0 -8 5 -11 10 -3 6 -1 10 4 10 6 0 11 -4 11 -10z m-1780 -50 c0
-5 8 -10 17 -10 9 0 14 -3 10 -6 -3 -4 -14 -3 -24 1 -10 5 -22 7 -26 6 -5 -1
-6 3 -2 9 8 13 25 13 25 0z m1831 -12 c11 -21 11 -22 -4 -9 -10 7 -17 17 -17
22 0 15 9 10 21 -13z m-2417 -52 c-6 -16 -24 -23 -24 -8 0 10 22 33 27 28 2
-2 1 -11 -3 -20z m2449 -13 c-9 -25 -26 -34 -35 -20 -11 17 -10 29 2 22 6 -3
10 -1 10 4 0 6 7 11 15 11 9 0 12 -6 8 -17z m-2486 -15 c-3 -8 -6 -5 -6 6 -1
11 2 17 5 13 3 -3 4 -12 1 -19z m23 -22 c0 -3 -4 -8 -10 -11 -5 -3 -10 -1 -10
4 0 6 5 11 10 11 6 0 10 -2 10 -4z m-40 -66 c0 -5 -5 -10 -11 -10 -5 0 -7 5
-4 10 3 6 8 10 11 10 2 0 4 -4 4 -10z m97 -162 c-3 -8 -6 -5 -6 6 -1 11 2 17
5 13 3 -3 4 -12 1 -19z m3077 6 c3 -8 2 -12 -4 -9 -6 3 -10 10 -10 16 0 14 7
11 14 -7z m-3394 -8 c0 -3 -4 -8 -10 -11 -5 -3 -10 -1 -10 4 0 6 5 11 10 11 6
0 10 -2 10 -4z m363 -26 c-3 -12 -8 -19 -11 -16 -5 6 5 36 12 36 2 0 2 -9 -1
-20z m383 -135 c-3 -23 -26 -43 -26 -24 0 8 5 20 12 27 15 15 17 15 14 -3z
m-380 -41 c-4 -9 -1 -23 5 -30 8 -10 8 -14 0 -14 -6 0 -11 5 -11 11 0 5 -4 7
-10 4 -5 -3 -10 3 -10 15 0 12 5 18 10 15 6 -3 10 -1 10 4 0 6 3 11 6 11 3 0
3 -7 0 -16z m394 -19 c0 -8 -2 -15 -4 -15 -2 0 -6 7 -10 15 -3 8 -1 15 4 15 6
0 10 -7 10 -15z m2420 -54 c0 -5 3 -18 6 -28 5 -16 4 -16 -10 1 -18 23 -20 36
-6 36 6 0 10 -4 10 -9z m377 -23 c-3 -8 -6 -5 -6 6 -1 11 2 17 5 13 3 -3 4
-12 1 -19z m-3150 -25 c0 -9 -4 -10 -14 -2 -7 6 -13 12 -13 14 0 1 6 2 13 2 8
0 14 -6 14 -14z m2804 -32 c-6 -10 -7 -22 -3 -26 11 -10 -20 -2 -34 10 -15 13
-8 26 11 18 8 -3 15 0 15 6 0 6 5 11 10 11 7 0 7 -6 1 -19z m-208 -61 c-3 -12
-8 -19 -11 -16 -5 6 5 36 12 36 2 0 2 -9 -1 -20z m183 -4 c-3 -12 -6 -29 -6
-40 0 -15 -3 -16 -15 -6 -13 11 -15 10 -9 -6 5 -15 4 -16 -5 -4 -7 10 -6 19 3
30 8 8 12 22 11 31 -2 9 4 16 12 16 10 0 13 -7 9 -21z m91 -23 c-3 -10 -5 -4
-5 12 0 17 2 24 5 18 2 -7 2 -21 0 -30z m-26 -90 c-10 -17 -10 -16 -11 3 0 23
13 41 18 25 2 -6 -1 -18 -7 -28z m-258 2 c-3 -9 -8 -14 -10 -11 -3 3 -2 9 2
15 9 16 15 13 8 -4z m144 -13 c0 -10 -8 -18 -18 -18 -13 0 -14 4 -5 18 6 10
14 18 18 18 4 0 6 -8 5 -18z m-2438 -36 c0 -6 -3 -5 -6 2 -2 6 -9 10 -14 6 -5
-3 -9 5 -9 18 1 22 1 22 15 4 8 -11 15 -25 14 -30z m2308 22 c-3 -8 -6 -5 -6
6 -1 11 2 17 5 13 3 -3 4 -12 1 -19z m106 -50 c6 -21 2 -36 -7 -27 -10 11 -16
49 -8 49 5 0 12 -10 15 -22z m-2413 2 c0 -5 -4 -10 -10 -10 -5 0 -10 5 -10 10
0 6 5 10 10 10 6 0 10 -4 10 -10z m2560 1 c0 -6 -4 -13 -10 -16 -5 -3 -10 1
-10 9 0 9 5 16 10 16 6 0 10 -4 10 -9z m-190 -21 c0 -5 -5 -10 -11 -10 -5 0
-7 5 -4 10 3 6 8 10 11 10 2 0 4 -4 4 -10z m180 -15 c0 -15 -32 -66 -38 -61
-3 4 0 12 6 18 7 7 12 20 12 30 0 10 5 18 10 18 6 0 10 -2 10 -5z m-136 -70
c-4 -8 -11 -15 -16 -15 -6 0 -5 6 2 15 7 8 14 15 16 15 2 0 1 -7 -2 -15z
m-126 -17 c-1 -13 -8 -32 -16 -43 -13 -19 -14 -19 -7 3 4 14 2 22 -6 22 -8 0
-5 8 7 19 24 25 23 25 22 -1z m23 -95 c-8 -15 -10 -15 -11 -2 0 17 10 32 18
25 2 -3 -1 -13 -7 -23z m-606 -223 c1 -10 -2 -17 -7 -14 -4 3 -8 15 -8 26 0
26 13 15 15 -12z m595 -35 c0 -8 -7 -15 -15 -15 -26 0 -18 20 13 29 1 1 2 -6
2 -14z m380 -55 c-6 -11 -12 -20 -14 -20 -2 0 -2 9 1 20 3 11 9 20 15 20 5 0
4 -9 -2 -20z m-963 -25 c0 -8 -4 -12 -9 -9 -5 3 -6 10 -3 15 9 13 12 11 12 -6z
m-1458 -79 c-3 -3 -11 5 -18 17 -13 21 -12 21 5 5 10 -10 16 -20 13 -22z
m-731 -21 c-3 -3 -9 2 -12 12 -6 14 -5 15 5 6 7 -7 10 -15 7 -18z m144 -7 c-7
-7 -12 -8 -12 -2 0 14 12 26 19 19 2 -3 -1 -11 -7 -17z m2800 -20 c-7 -7 -12
-8 -12 -2 0 14 12 26 19 19 2 -3 -1 -11 -7 -17z m-12 -98 c0 -3 -6 -14 -13
-25 -15 -20 -31 -7 -22 17 6 14 35 21 35 8z m-2385 -179 c3 -5 1 -12 -5 -16
-5 -3 -10 1 -10 9 0 18 6 21 15 7z m65 -77 c0 -2 -7 -4 -15 -4 -8 0 -15 4 -15
10 0 5 7 7 15 4 8 -4 15 -8 15 -10z m2045 -5 c0 -9 -9 -13 -22 -12 -13 2 -23
-2 -23 -7 0 -6 -5 -10 -12 -10 -6 0 -1 11 12 25 25 27 45 28 45 4z m-2025
-159 c0 -5 -2 -10 -4 -10 -3 0 -8 5 -11 10 -3 6 -1 10 4 10 6 0 11 -4 11 -10z
m1274 -105 c3 -8 1 -15 -4 -15 -6 0 -10 7 -10 15 0 8 2 15 4 15 2 0 6 -7 10
-15z m296 -19 c0 -2 -7 -6 -15 -10 -8 -3 -15 -1 -15 4 0 6 7 10 15 10 8 0 15
-2 15 -4z m-344 -51 c-11 -8 -27 -15 -35 -15 -13 1 -12 4 3 15 11 8 27 15 35
15 13 -1 12 -4 -3 -15z m234 -19 c0 -2 -9 -6 -20 -9 -11 -3 -18 -1 -14 4 5 9
34 13 34 5z m-365 -27 c-32 -9 -47 -3 -26 10 7 5 23 6 35 3 19 -5 18 -6 -9
-13z m365 -3 c0 -2 -7 -6 -15 -10 -8 -3 -15 -1 -15 4 0 6 7 10 15 10 8 0 15
-2 15 -4z"/>
<path d="M2430 3464 c-226 -33 -387 -99 -537 -221 -24 -19 -43 -38 -43 -42 0
-5 38 -21 85 -35 85 -27 86 -27 113 -8 191 134 416 178 658 128 60 -13 180
-69 250 -117 l40 -27 92 26 92 26 -22 23 c-34 36 -158 119 -224 149 -169 77
-372 117 -504 98z m61 -56 c13 -25 3 -55 -22 -63 -27 -9 -49 12 -49 46 0 47
48 59 71 17z m59 22 c17 -11 22 -59 7 -77 -5 -7 -18 -13 -28 -13 -16 0 -19 8
-19 43 0 56 9 67 40 47z m-146 -22 c3 -13 6 -34 6 -47 0 -36 -16 -13 -23 32
-6 40 7 52 17 15z m244 10 c18 -18 14 -53 -7 -72 -27 -25 -61 -6 -61 34 0 41
42 64 68 38z m-274 -20 c3 -13 5 -34 5 -48 0 -22 -2 -21 -14 10 -7 19 -14 30
-14 23 -1 -6 -6 -24 -12 -40 l-11 -28 -13 35 c-17 43 -18 60 -5 60 6 0 10 -9
10 -20 0 -28 17 -25 24 5 8 31 22 32 30 3z m353 -26 c2 -37 -18 -56 -47 -47
-20 6 -20 14 -4 77 9 30 49 6 51 -30z m-430 -10 c6 -23 8 -42 3 -42 -5 0 -13
14 -18 32 -12 49 -34 49 -26 0 5 -34 3 -42 -15 -51 -18 -10 -23 -8 -33 15
l-12 26 -11 -39 -11 -38 -17 32 c-21 39 -24 82 -4 45 15 -26 27 -19 27 15 0
34 18 28 34 -12 20 -46 28 -44 25 6 -2 27 1 43 11 49 23 15 34 7 47 -38z m513
19 c0 -5 -9 -7 -19 -4 -28 7 -45 -28 -26 -53 8 -11 15 -15 15 -10 0 5 6 3 13
-3 11 -9 16 -3 26 29 7 22 16 38 21 35 5 -3 7 -12 3 -20 -6 -17 12 -21 22 -5
3 6 12 10 18 10 7 -1 2 -9 -9 -19 -16 -12 -21 -26 -18 -47 4 -28 4 -28 -7 -6
-12 23 -29 30 -29 12 0 -12 -48 -3 -67 13 -16 12 -17 49 -1 65 14 14 58 16 58
3z m-687 -42 c-9 -9 -8 -19 3 -41 21 -41 9 -49 -13 -9 -10 17 -24 29 -30 26
-23 -8 -14 12 10 23 30 14 44 15 30 1z m787 -18 c-16 -30 -12 -33 21 -16 17 9
32 15 34 13 1 -2 -7 -23 -17 -48 -11 -25 -22 -40 -25 -33 -2 7 1 21 7 32 13
25 8 26 -30 6 -19 -10 -30 -11 -30 -5 0 19 30 70 41 70 6 0 6 -6 -1 -19z
m-863 -26 c-13 -9 -17 -20 -13 -33 9 -27 32 -34 51 -16 13 13 15 13 15 1 0
-18 -27 -29 -51 -22 -36 12 -37 85 -2 85 17 -1 17 -1 0 -15z"/>
<path d="M2437 3405 c-9 -22 3 -46 22 -43 10 2 16 13 16 28 0 28 -29 40 -38
15z"/>
<path d="M2530 3410 c0 -5 5 -10 10 -10 6 0 10 5 10 10 0 6 -4 10 -10 10 -5 0
-10 -4 -10 -10z"/>
<path d="M2530 3370 c0 -5 5 -10 10 -10 6 0 10 5 10 10 0 6 -4 10 -10 10 -5 0
-10 -4 -10 -10z"/>
<path d="M2600 3386 c0 -32 20 -44 36 -22 16 23 7 46 -17 46 -13 0 -19 -7 -19
-24z"/>
<path d="M2690 3390 c0 -5 5 -10 10 -10 6 0 10 5 10 10 0 6 -4 10 -10 10 -5 0
-10 -4 -10 -10z"/>
<path d="M2680 3350 c0 -5 7 -10 15 -10 8 0 15 5 15 10 0 6 -7 10 -15 10 -8 0
-15 -4 -15 -10z"/>
<path d="M2331 3274 c-67 -14 -226 -88 -271 -125 l-25 -21 27 5 c15 2 25 0 22
-4 -3 -5 -2 -9 2 -9 15 0 341 -72 359 -80 11 -4 28 -11 38 -14 25 -8 488 106
484 119 -7 20 -213 116 -282 130 -87 18 -269 18 -354 -1z"/>
<path d="M1773 3123 c-70 -82 -146 -215 -181 -319 -30 -89 -52 -182 -51 -219
0 -11 -1 -60 -1 -110 -3 -210 86 -443 231 -607 45 -53 54 -58 64 -44 7 8 15
13 19 9 4 -4 5 -1 2 7 -3 8 0 44 7 79 l13 64 -44 66 c-97 144 -133 261 -133
436 0 154 32 278 105 404 13 25 23 48 20 53 -3 4 -1 8 4 8 4 0 18 13 29 29
l22 28 -20 79 c-11 44 -24 83 -28 87 -5 4 -31 -18 -58 -50z m57 -120 c0 -3
-12 -2 -27 2 -26 6 -27 6 -10 -13 26 -29 20 -38 -8 -12 -28 26 -33 16 -9 -18
22 -32 13 -36 -29 -12 -30 18 -35 19 -41 5 -4 -11 5 -20 29 -32 19 -9 32 -20
29 -24 -2 -4 -20 1 -38 12 l-33 19 -13 -30 c-15 -37 -6 -51 16 -24 15 18 15
18 9 -3 -7 -25 12 -42 21 -19 3 9 10 16 15 16 8 0 -4 -33 -16 -48 -5 -6 -75
32 -75 40 0 15 42 97 55 108 10 8 19 8 35 0 21 -11 21 -11 5 19 -14 27 -14 31
-1 31 10 0 13 6 9 15 -4 13 3 12 36 -6 22 -11 41 -23 41 -26z m-150 -179 c40
-16 58 -41 21 -29 -27 8 -37 -13 -15 -30 23 -18 11 -19 -33 -3 -34 12 -46 31
-16 26 10 -2 19 4 21 15 2 10 -3 17 -12 17 -9 0 -16 5 -16 10 0 13 3 13 50 -6z
m4 -96 c23 -37 -35 -76 -70 -48 -15 13 -19 52 -7 64 13 13 66 1 77 -16z m-14
-79 c0 -6 -15 -9 -37 -7 -48 4 -55 -18 -8 -26 19 -4 35 -11 35 -16 0 -5 -6 -8
-12 -6 -7 3 -25 7 -40 10 -21 5 -28 12 -28 31 0 23 4 25 45 25 26 0 45 -5 45
-11z m-15 -100 c4 -5 -12 -9 -36 -9 -35 0 -40 -2 -29 -14 9 -11 18 -13 37 -5
27 10 39 7 29 -9 -9 -15 -60 -21 -73 -10 -7 6 -13 20 -13 32 0 18 6 22 40 23
22 1 42 -2 45 -8z m5 -78 c0 -5 -10 -12 -22 -14 l-23 -4 23 -8 c13 -4 22 -15
22 -28 0 -19 -1 -19 -18 -4 -10 10 -32 17 -48 18 -29 1 -29 1 -4 9 22 6 23 8
8 15 -31 13 -20 25 22 25 22 0 40 -4 40 -9z m-38 -81 c7 -11 21 -20 30 -20 10
0 18 -4 18 -10 0 -5 -13 -10 -29 -10 -16 0 -36 -3 -45 -6 -12 -5 -16 1 -16 23
0 47 21 58 42 23z m38 -71 c-32 -9 -75 -11 -67 -3 10 10 71 21 82 15 5 -3 -1
-8 -15 -12z m26 -34 c8 -32 7 -33 -44 -41 -41 -6 -42 -6 -41 22 0 28 1 28 10
6 11 -28 29 -20 21 10 -3 14 -2 19 6 14 7 -4 12 -14 12 -22 0 -8 5 -14 11 -14
7 0 9 10 7 25 -7 33 10 32 18 0z m20 -67 c4 -15 1 -25 -12 -35 -20 -15 -74
-18 -74 -4 0 5 -3 16 -6 25 -3 9 -1 16 5 16 6 0 11 -6 11 -14 0 -20 12 -26 38
-19 24 6 30 38 10 46 -8 3 -7 6 4 6 9 1 20 -9 24 -21z m8 -63 c-4 -18 -2 -25
9 -25 8 0 20 -7 27 -15 11 -13 10 -21 -1 -43 -7 -15 -15 -31 -17 -35 -3 -5 5
-4 17 3 12 6 27 9 34 7 12 -4 -11 -16 -62 -32 l-24 -7 21 36 21 36 -29 -15
c-43 -22 -37 -3 8 23 l37 22 -53 0 -53 0 28 35 c33 41 46 45 37 10z m61 -162
c-20 -14 -40 -22 -43 -18 -4 4 0 10 8 15 8 5 24 15 35 23 11 9 24 13 28 10 5
-3 -8 -16 -28 -30z m55 -2 c0 -12 -69 -66 -75 -59 -6 6 55 68 66 68 5 0 9 -4
9 -9z"/>
<path d="M1615 2721 c-10 -17 4 -31 31 -31 19 0 25 5 22 18 -4 19 -43 29 -53
13z"/>
<path d="M1596 2383 c-11 -11 -6 -23 9 -23 8 0 15 4 15 9 0 13 -16 22 -24 14z"/>
<path d="M1685 2130 c-3 -5 -1 -10 4 -10 6 0 11 5 11 10 0 6 -2 10 -4 10 -3 0
-8 -4 -11 -10z"/>
<path d="M3181 3148 c-6 -18 -12 -48 -14 -66 -2 -17 -7 -35 -10 -39 -15 -15
-5 -48 28 -93 48 -66 109 -200 130 -287 10 -41 17 -113 17 -168 0 -63 4 -95
12 -95 8 0 7 -3 -1 -8 -6 -4 -18 -37 -27 -73 -23 -101 -52 -166 -115 -260
l-58 -85 14 -50 c7 -27 18 -66 24 -88 l11 -39 39 39 c100 97 204 288 240 440
18 77 20 110 16 244 -4 141 -7 164 -36 249 -40 119 -104 240 -157 297 -22 24
-38 46 -36 49 3 3 -2 5 -12 5 -9 0 -15 4 -12 8 6 10 -21 52 -34 52 -5 0 -13
-15 -19 -32z m87 -90 c7 -7 12 -19 12 -27 0 -11 -5 -9 -16 7 -19 28 -40 28
-54 1 -9 -16 -8 -25 6 -40 17 -18 18 -18 50 2 38 23 47 11 12 -14 -23 -16 -22
-16 17 -17 l40 -1 -30 -24 c-36 -30 -55 -33 -30 -5 18 20 17 20 -9 20 -33 0
-72 36 -78 72 -3 15 -2 25 3 23 4 -3 10 -1 14 5 9 14 48 13 63 -2z m90 -140
c7 -7 12 -19 12 -27 -1 -14 -3 -13 -14 2 -7 9 -23 17 -35 17 -25 0 -39 -26
-22 -43 17 -17 13 -31 -4 -17 -32 26 -12 80 30 80 12 0 26 -5 33 -12z m22 -54
c0 -10 -33 -33 -47 -34 -21 0 -15 16 10 28 26 13 37 14 37 6z m20 -43 c0 -5
-12 -19 -26 -30 l-27 -21 36 0 c20 0 39 -5 42 -10 6 -9 -9 -18 -62 -34 -33
-10 -28 8 5 21 l27 11 -32 1 c-39 1 -42 13 -10 36 22 17 22 17 -10 10 -20 -4
-33 -3 -33 4 0 9 24 15 73 20 9 0 17 -3 17 -8z m39 -126 c7 -7 -10 -24 -44
-44 -35 -20 -46 -16 -22 8 10 10 9 15 -5 25 -10 7 -18 16 -18 20 0 7 80 -2 89
-9z m16 -85 c8 -26 -1 -40 -27 -40 -11 0 -22 8 -25 20 -3 12 -14 20 -27 20
-17 0 -18 2 -6 10 28 18 78 12 85 -10z m-26 -61 c17 -6 31 -14 31 -18 0 -4
-20 -17 -45 -29 -25 -12 -45 -17 -45 -12 0 6 5 10 10 10 15 0 12 47 -2 53 -26
11 20 7 51 -4z m31 -79 c0 -5 -21 -10 -46 -10 -27 0 -43 4 -39 10 3 6 24 10
46 10 21 0 39 -4 39 -10z m-2 -58 c7 -45 -41 -70 -69 -36 -11 13 -9 14 16 8
20 -5 26 -4 21 4 -5 8 -1 10 9 5 13 -4 16 -1 13 13 -4 23 -43 31 -64 14 -16
-14 -19 1 -3 17 6 6 24 7 42 4 23 -5 33 -13 35 -29z m-12 -81 c8 -4 9 -14 3
-28 -10 -28 -29 -30 -22 -3 3 11 0 20 -6 20 -6 0 -11 -6 -11 -14 0 -21 -31
-29 -48 -12 -9 8 -11 22 -7 35 6 19 11 21 43 15 20 -4 42 -9 48 -13z m-16 -84
c0 -39 -51 -62 -78 -35 -12 12 -16 50 -7 60 8 8 85 -15 85 -25z m-55 -61 c37
-16 48 -32 15 -23 -17 4 -18 1 -14 -27 4 -25 3 -28 -6 -13 -6 9 -22 17 -35 17
-14 0 -25 4 -25 9 0 5 9 7 20 4 25 -7 27 15 3 33 -24 18 -2 18 42 0z m-34 -66
c25 -14 25 -56 -1 -70 -38 -21 -80 22 -60 61 12 21 32 24 61 9z m-43 -84 l32
-23 -20 -24 c-18 -22 -21 -22 -33 -8 -6 9 -23 19 -37 23 -23 6 -22 4 9 -23 19
-17 32 -34 28 -37 -4 -4 -16 1 -27 11 -20 18 -20 18 -9 -14 6 -18 9 -34 6 -38
-9 -8 -77 48 -71 59 3 5 17 0 30 -13 l23 -22 -9 34 c-13 45 -4 72 21 64 29 -9
43 4 22 21 -10 7 -13 14 -7 14 5 0 25 -11 42 -24z"/>
<path d="M3390 2679 c0 -5 5 -7 10 -4 6 3 10 8 10 11 0 2 -4 4 -10 4 -5 0 -10
-5 -10 -11z"/>
<path d="M3417 2614 c-8 -8 1 -24 14 -24 5 0 9 7 9 15 0 15 -12 20 -23 9z"/>
<path d="M3410 2530 c0 -5 5 -10 11 -10 5 0 7 5 4 10 -3 6 -8 10 -11 10 -2 0
-4 -4 -4 -10z"/>
<path d="M3370 2315 c0 -9 5 -15 11 -13 6 2 11 8 11 13 0 5 -5 11 -11 13 -6 2
-11 -4 -11 -13z"/>
<path d="M3354 2249 c-10 -16 22 -43 41 -35 9 3 15 11 13 18 -6 16 -46 29 -54
17z"/>
<path d="M3290 2091 c0 -23 37 -38 53 -22 7 7 6 15 -3 26 -18 22 -50 19 -50
-4z"/>
<path d="M3280 2005 c0 -9 5 -15 11 -13 6 2 11 8 11 13 0 5 -5 11 -11 13 -6 2
-11 -4 -11 -13z"/>
<path d="M1900 3155 c19 -7 42 -13 50 -13 8 0 -1 6 -20 13 -19 7 -42 13 -50
13 -8 0 1 -6 20 -13z"/>
<path d="M3070 3149 c-30 -10 -41 -16 -25 -13 49 8 105 24 105 29 0 8 -23 4
-80 -16z"/>
<path d="M1861 3124 c0 -11 3 -14 6 -6 3 7 2 16 -1 19 -3 4 -6 -2 -5 -13z"/>
<path d="M1924 3111 c28 -29 31 -30 48 -14 21 19 19 21 -47 37 l-30 8 29 -31z"/>
<path d="M3066 3127 c-37 -12 -38 -12 -19 -29 19 -17 21 -17 48 12 31 33 29
34 -29 17z"/>
<path d="M1893 3080 c9 -45 11 -48 23 -33 19 25 17 36 -10 62 l-23 22 10 -51z"/>
<path d="M3115 3110 c-10 -11 -14 -20 -9 -20 5 0 2 -5 -6 -10 -13 -8 -13 -11
2 -26 15 -16 17 -14 28 26 13 50 10 57 -15 30z"/>
<path d="M1994 3097 l-28 -24 110 -7 c60 -4 142 -12 182 -17 41 -6 76 -8 79
-6 5 6 -216 58 -261 61 -18 2 -38 6 -44 10 -6 3 -23 -4 -38 -17z"/>
<path d="M2822 3083 c-79 -19 -142 -36 -140 -38 2 -2 85 5 186 14 l183 16 -23
23 c-30 28 -33 27 -206 -15z"/>
<path d="M1871 3084 c0 -11 3 -14 6 -6 3 7 2 16 -1 19 -3 4 -6 -2 -5 -13z"/>
<path d="M1921 3029 l-23 -31 16 -92 c23 -125 57 -278 62 -273 2 2 0 27 -6 55
-5 29 -12 106 -16 172 -4 66 -11 120 -17 120 -5 0 -6 -7 -3 -16 3 -8 2 -12 -4
-9 -6 3 -10 15 -10 27 0 15 4 18 17 14 10 -4 14 -4 11 -1 -4 4 -3 18 2 31 14
35 -4 37 -29 3z"/>
<path d="M3066 2894 c-3 -93 -9 -185 -12 -204 -4 -19 -4 -33 -1 -30 11 10 49
211 43 226 -3 9 -1 12 4 9 6 -3 10 0 10 7 1 7 5 33 9 57 8 39 6 46 -19 74
l-27 30 -7 -169z"/>
<path d="M1973 2884 c4 -93 10 -185 15 -204 13 -56 36 -50 73 20 62 116 167
214 286 265 l76 33 -39 11 c-84 22 -164 32 -288 38 l-129 6 6 -169z"/>
<path d="M2855 3044 c-109 -13 -245 -38 -245 -45 0 -5 6 -9 13 -9 8 0 28 -7
46 -16 18 -9 35 -13 38 -10 4 3 12 -3 20 -14 15 -21 39 -29 27 -8 -4 7 -3 8 4
4 7 -4 12 -14 12 -22 0 -14 12 -18 39 -14 8 1 11 -4 8 -13 -3 -8 12 -30 35
-53 45 -44 128 -155 128 -173 0 -6 5 -11 11 -11 5 0 8 -4 4 -9 -3 -6 1 -25 8
-43 l14 -33 11 75 c8 51 8 76 1 79 -6 2 -4 10 5 20 11 12 16 52 20 159 l5 142
-55 0 c-31 0 -65 -5 -76 -11 -15 -8 -19 -8 -14 0 7 11 1 12 -59 5z m-51 -100
c9 -3 16 -11 16 -16 0 -7 -5 -6 -13 1 -8 6 -17 8 -20 4 -4 -3 -7 -1 -7 5 0 14
2 14 24 6z m191 -192 c-3 -3 -11 0 -18 7 -9 10 -8 11 6 5 10 -3 15 -9 12 -12z"/>
<path d="M2358 3033 c7 -3 16 -2 19 1 4 3 -2 6 -13 5 -11 0 -14 -3 -6 -6z"/>
<path d="M3136 2960 c-37 -159 -90 -435 -90 -470 0 -25 17 -130 39 -233 29
-141 42 -187 52 -183 16 6 17 -16 2 -31 -7 -7 -8 -17 -2 -28 8 -14 19 -3 61
63 60 94 83 149 106 252 22 100 16 278 -12 372 -22 72 -90 207 -128 255 l-22
28 -6 -25z"/>
<path d="M1835 2916 c-87 -136 -119 -244 -119 -406 -1 -146 6 -202 35 -279 33
-89 112 -221 132 -221 5 0 7 20 5 45 -3 24 -1 42 3 39 10 -6 15 12 34 116 9
47 27 129 41 183 l24 97 -20 78 c-11 42 -23 88 -26 102 -15 80 -16 83 -25 69
-6 -9 -7 1 -3 27 4 25 0 65 -10 103 -9 34 -16 71 -16 82 0 33 -19 21 -55 -35z"/>
<path d="M2603 2935 c16 -9 31 -14 35 -11 8 9 0 14 -33 21 l-30 6 28 -16z"/>
<path d="M2335 2922 c-47 -20 -85 -44 -85 -54 0 -3 14 -4 32 -1 35 5 92 41 96
61 1 6 1 12 0 11 -2 0 -21 -8 -43 -17z"/>
<path d="M2686 2901 c19 -19 37 -30 43 -26 9 5 9 10 0 21 -6 7 -16 11 -21 8
-5 -3 -19 2 -31 12 -12 10 -8 3 9 -15z"/>
<path d="M2461 2838 c12 -22 48 -20 42 3 -3 10 -14 16 -28 15 -18 -1 -21 -4
-14 -18z"/>
<path d="M2548 2838 c14 -7 26 -8 32 -2 6 6 -2 10 -23 11 -30 2 -31 1 -9 -9z"/>
<path d="M2133 2757 c-27 -41 -52 -91 -56 -114 -2 -10 -7 -26 -12 -36 -4 -10
-5 -20 -2 -23 7 -7 71 112 87 159 16 49 10 54 -17 14z"/>
<path d="M2867 2757 c6 -43 24 -79 38 -73 7 2 12 -2 12 -9 0 -20 24 -75 33
-75 19 0 -44 154 -73 178 -11 10 -13 6 -10 -21z"/>
<path d="M2267 2721 c-4 -17 -3 -21 5 -13 5 5 8 16 6 23 -3 8 -7 3 -11 -10z"/>
<path d="M2296 2702 c-3 -3 -1 -11 5 -19 9 -10 15 -11 26 -2 11 10 12 9 7 -5
-3 -9 -2 -16 4 -16 11 0 10 25 -1 37 -10 9 -34 13 -41 5z"/>
<path d="M2000 2611 c0 -12 5 -21 10 -21 6 0 10 6 10 14 0 8 -4 18 -10 21 -5
3 -10 -3 -10 -14z"/>
<path d="M2146 2562 c-12 -47 -2 -182 14 -182 4 0 13 14 20 30 7 17 17 30 22
30 5 0 6 5 3 10 -4 6 -11 8 -16 5 -5 -4 -9 -1 -9 5 0 7 8 9 20 5 17 -5 20 -2
20 24 0 16 -5 33 -12 37 -7 4 -8 3 -4 -5 9 -13 -10 -41 -28 -41 -6 0 -3 7 6
14 15 11 16 18 7 44 -12 35 -36 49 -43 24z"/>
<path d="M2858 2535 c-3 -14 -2 -27 1 -30 4 -2 8 10 9 26 3 36 -4 38 -10 4z"/>
<path d="M2857 2459 c-17 -20 -15 -59 2 -59 8 0 24 71 18 77 -2 1 -11 -7 -20
-18z"/>
<path d="M2065 2379 c4 -19 14 -50 22 -69 16 -39 74 -133 79 -127 8 8 -29 104
-56 147 -17 26 -30 52 -30 58 0 6 -5 14 -11 18 -8 4 -9 -4 -4 -27z"/>
<path d="M2915 2338 c-22 -38 -45 -91 -51 -116 l-12 -47 24 30 c30 36 57 87
73 137 23 69 6 67 -34 -4z"/>
<path d="M2996 2359 c-37 -104 -141 -239 -223 -290 -18 -11 -34 -28 -37 -37
-3 -9 -16 -23 -28 -31 -22 -13 -22 -12 2 13 l25 27 -25 -9 c-14 -6 -45 -19
-70 -30 l-45 -20 37 -7 c20 -4 41 -4 47 0 6 3 11 2 11 -4 0 -5 26 -12 58 -16
31 -3 73 -8 92 -10 19 -3 75 -8 124 -11 l89 -7 -6 179 c-4 98 -12 208 -19 243
l-13 64 -19 -54z m-106 -309 c5 7 10 8 14 2 8 -13 -17 -22 -34 -12 -8 5 -9 13
-4 21 7 11 9 10 12 -5 3 -14 6 -15 12 -6z m-34 -76 c-3 -23 -16 -28 -16 -8 0
11 -6 26 -12 33 -11 11 -9 11 8 0 12 -7 21 -18 20 -25z"/>
<path d="M1991 2308 c-7 -46 -15 -150 -18 -231 l-5 -149 103 6 c127 7 430 56
348 56 -29 0 -155 68 -206 111 -70 59 -134 144 -169 224 -16 36 -31 65 -35 65
-3 0 -11 -37 -18 -82z"/>
<path d="M1951 2258 c-11 -51 -28 -132 -37 -179 l-17 -86 22 -32 c12 -17 27
-31 33 -31 13 0 1 69 -15 89 -9 11 -9 13 0 8 8 -5 13 18 18 80 3 49 10 121 16
162 5 41 7 76 5 78 -2 3 -13 -38 -25 -89z"/>
<path d="M2271 2333 c-8 -9 -11 -27 -8 -48 3 -18 1 -37 -5 -43 -8 -8 -5 -11
11 -9 17 1 21 6 17 28 -3 24 -1 26 30 24 19 -2 37 2 41 8 3 6 1 7 -5 3 -7 -4
-12 -1 -12 6 0 10 -2 10 -9 -1 -6 -9 -11 -10 -15 -2 -4 6 -5 15 -1 20 10 18
-29 30 -44 14z"/>
<path d="M3055 2278 c3 -32 8 -113 11 -180 4 -68 11 -129 17 -135 6 -9 6 -13
-2 -13 -6 0 -11 -5 -11 -12 0 -6 13 0 28 15 l28 27 -33 168 c-36 184 -46 216
-38 130z"/>
<path d="M2719 2311 c7 -5 11 -13 7 -19 -4 -6 2 -8 14 -5 19 5 20 6 3 19 -10
7 -22 13 -28 14 -5 0 -4 -4 4 -9z"/>
<path d="M2680 2280 c0 -5 5 -10 11 -10 5 0 7 5 4 10 -3 6 -8 10 -11 10 -2 0
-4 -4 -4 -10z"/>
<path d="M2296 2272 c-9 -14 8 -27 34 -26 45 2 49 4 44 19 -6 15 -17 14 -63
-3 -9 -3 -12 -1 -7 6 4 7 5 12 2 12 -3 0 -7 -4 -10 -8z"/>
<path d="M2711 2256 l-24 -13 27 -5 c14 -3 26 -4 26 -2 0 1 3 9 6 18 7 19 -3
20 -35 2z"/>
<path d="M2472 2174 c-12 -8 -22 -24 -22 -35 0 -17 7 -19 58 -18 31 0 51 3 44
6 -9 4 -10 9 -2 18 9 11 -3 24 -30 29 -3 1 -10 4 -16 8 -6 4 -20 0 -32 -8z"/>
<path d="M2570 2140 c0 -5 7 -10 16 -10 8 0 12 5 9 10 -3 6 -10 10 -16 10 -5
0 -9 -4 -9 -10z"/>
<path d="M2245 2114 c29 -24 145 -77 152 -70 7 7 11 4 -49 44 -26 17 -65 34
-85 37 -37 6 -37 6 -18 -11z"/>
<path d="M2737 2119 c-36 -10 -59 -28 -50 -42 4 -6 0 -8 -10 -4 -9 3 -36 -3
-59 -13 -38 -17 -40 -20 -16 -20 35 0 128 36 163 64 29 24 21 28 -28 15z"/>
<path d="M2425 2040 c27 -12 43 -12 25 0 -8 5 -22 9 -30 9 -10 0 -8 -3 5 -9z"/>
<path d="M1881 1944 c0 -11 3 -14 6 -6 3 7 2 16 -1 19 -3 4 -6 -2 -5 -13z"/>
<path d="M1893 1911 c-6 -28 -9 -51 -8 -51 1 0 13 13 27 28 24 28 25 30 8 52
-17 22 -17 22 -27 -29z"/>
<path d="M2435 1945 c-22 -7 -108 -29 -191 -49 -218 -51 -209 -45 -136 -90
185 -112 416 -144 620 -86 86 24 171 65 179 85 3 8 13 15 22 15 10 0 26 6 36
14 17 12 10 15 -61 31 -43 9 -146 35 -229 56 -163 42 -180 44 -240 24z"/>
<path d="M2285 1939 c-22 -4 -102 -11 -178 -15 l-138 -7 28 -28 28 -28 100 25
c55 14 132 32 170 41 39 8 72 17 74 19 7 6 -39 3 -84 -7z"/>
<path d="M2750 1920 c58 -16 125 -32 149 -36 38 -6 43 -4 38 9 -4 10 0 17 11
20 9 2 1 4 -18 4 -19 1 -73 6 -120 12 -47 6 -103 14 -125 16 -22 3 7 -8 65
-25z"/>
<path d="M3102 1938 c-17 -17 -15 -32 8 -53 27 -24 32 -17 19 28 -11 42 -11
41 -27 25z"/>
<path d="M1872 1900 c0 -14 2 -19 5 -12 2 6 2 18 0 25 -3 6 -5 1 -5 -13z"/>
<path d="M2982 1895 c-11 -23 -9 -25 12 -25 24 0 61 32 49 43 -16 16 -50 6
-61 -18z"/>
<path d="M1919 1874 l-24 -27 40 8 c52 9 58 14 44 31 -17 20 -32 17 -60 -12z"/>
<path d="M3045 1880 c-15 -17 -16 -20 -3 -20 9 0 31 -3 49 -6 l34 -7 -24 27
c-29 31 -33 32 -56 6z"/>
<path d="M3151 1874 c0 -11 3 -14 6 -6 3 7 2 16 -1 19 -3 4 -6 -2 -5 -13z"/>
<path d="M1910 1834 l-35 -14 35 6 c19 4 44 10 55 15 l20 8 -20 0 c-11 0 -36
-7 -55 -15z"/>
<path d="M3035 1845 c33 -12 126 -33 119 -26 -10 9 -96 31 -116 30 -7 0 -8 -2
-3 -4z"/>
<path d="M1923 1818 c-40 -11 -73 -24 -73 -28 0 -14 83 -78 170 -130 81 -49
173 -89 214 -93 11 -1 24 -5 27 -10 15 -21 178 -39 299 -34 190 8 355 65 519
181 90 64 113 86 87 86 -11 0 -15 -5 -10 -12 4 -7 -5 -2 -19 11 -14 13 -36 25
-49 27 -13 1 -37 7 -54 12 -25 8 -37 6 -58 -7 -14 -10 -24 -21 -21 -24 3 -4 2
-5 -1 -3 -4 3 -41 -13 -83 -34 -244 -124 -555 -105 -795 48 -58 37 -58 37
-153 10z m1161 -34 c3 -8 -1 -14 -10 -14 -8 0 -12 -4 -9 -10 3 -5 2 -10 -4
-10 -5 0 -9 13 -9 29 1 30 21 33 32 5z m-46 -49 c-3 -3 -9 2 -12 12 -6 14 -5
15 5 6 7 -7 10 -15 7 -18z m-928 -5 c0 -17 3 -19 18 -11 12 6 28 5 50 -5 l33
-13 -21 -41 c-23 -45 -26 -46 -55 -23 -20 15 -20 15 2 10 29 -7 39 8 16 23
-16 10 -16 11 4 7 25 -5 40 18 17 27 -31 12 -45 5 -55 -24 -6 -16 -15 -27 -20
-24 -5 3 -6 10 -3 16 4 6 -1 8 -15 3 -12 -3 -21 -2 -21 4 0 5 8 12 19 16 13 4
17 12 13 30 -2 15 0 25 7 25 6 0 11 -9 11 -20z m857 -6 c12 -19 14 -30 6 -43
-12 -19 -43 -27 -43 -12 0 6 7 11 15 11 19 0 20 34 1 49 -11 9 -18 8 -30 -4
-13 -13 -16 -14 -16 -2 0 36 43 37 67 1z m-63 -41 c14 -29 15 -38 4 -44 -23
-15 -48 -10 -48 9 0 10 -5 23 -12 30 -6 6 -8 15 -3 19 4 5 10 2 12 -4 8 -22
25 -14 18 7 -11 34 10 22 29 -17z m-74 -35 l0 -52 -36 35 c-34 32 -36 32 -29
9 4 -14 10 -31 12 -37 3 -7 1 -13 -5 -13 -6 0 -13 13 -17 30 -10 48 -25 45
-25 -4 0 -52 -13 -59 -33 -19 l-15 27 -7 -32 c-3 -18 -10 -32 -15 -32 -10 0
-24 79 -16 87 3 4 6 -1 6 -10 0 -9 5 -17 10 -17 6 0 10 7 10 15 0 21 16 19 25
-2 7 -16 9 -15 14 6 7 27 60 49 71 30 9 -13 40 0 40 17 0 8 2 14 5 14 3 0 5
-23 5 -52z m-562 33 c9 -5 25 -12 35 -15 15 -5 17 -12 12 -38 -11 -50 -27 -60
-23 -14 4 51 -16 57 -39 12 -18 -34 -19 -35 -41 -21 -16 12 -19 20 -13 33 5 9
12 25 15 35 6 19 27 22 54 8z m113 -31 c10 0 2 -69 -10 -82 -9 -10 -51 2 -51
14 0 5 9 6 20 3 25 -8 27 10 3 24 -16 9 -16 10 5 11 12 0 22 5 22 11 0 6 -9 9
-20 6 -11 -3 -20 -2 -20 2 0 14 14 22 28 16 7 -3 18 -5 23 -5z m37 -35 c-4
-20 -3 -23 8 -14 18 15 18 -1 0 -23 -20 -27 -26 -22 -26 22 0 23 5 40 11 40 7
0 9 -10 7 -25z m51 3 c-1 -13 -4 -34 -8 -48 -7 -22 -8 -21 -13 15 -6 42 -3 55
13 55 5 0 9 -10 8 -22z m64 7 c13 -13 16 -13 27 0 27 33 74 7 68 -37 -4 -28
-48 -37 -67 -14 -12 14 -15 13 -31 -6 -12 -15 -22 -19 -36 -13 -17 7 -17 8 6
14 14 4 26 15 28 25 4 21 -16 38 -35 31 -7 -2 -13 0 -13 5 0 15 37 12 53 -5z"/>
<path d="M2872 1661 c2 -7 7 -12 11 -12 12 1 9 15 -3 20 -7 2 -11 -2 -8 -8z"/>
<path d="M2805 1640 c3 -5 8 -10 11 -10 2 0 4 5 4 10 0 6 -5 10 -11 10 -5 0
-7 -4 -4 -10z"/>
<path d="M2225 1660 c3 -5 10 -10 16 -10 5 0 9 5 9 10 0 6 -7 10 -16 10 -8 0
-12 -4 -9 -10z"/>
<path d="M2215 1620 c4 -6 11 -8 16 -5 14 9 11 15 -7 15 -8 0 -12 -5 -9 -10z"/>
<path d="M2577 1623 c-13 -12 -7 -44 9 -50 21 -8 35 16 23 39 -10 19 -21 23
-32 11z"/>
<path d="M2060 4280 c0 -5 4 -10 9 -10 6 0 13 5 16 10 3 6 -1 10 -9 10 -9 0
-16 -4 -16 -10z"/>
<path d="M3417 4139 c7 -7 15 -10 18 -7 3 3 -2 9 -12 12 -14 6 -15 5 -6 -5z"/>
<path d="M1389 3938 c-12 -23 -12 -23 10 -4 23 21 26 26 11 26 -5 0 -15 -10
-21 -22z"/>
<path d="M4105 3471 c5 -17 3 -20 -12 -18 -10 1 -25 7 -33 12 -13 8 -13 7 -1
-8 7 -9 18 -14 24 -10 6 4 8 0 4 -10 -4 -11 -2 -14 7 -11 17 6 44 -25 29 -34
-7 -5 -2 -21 14 -45 13 -22 27 -36 30 -33 3 3 -2 17 -11 31 -10 15 -14 34 -10
49 3 14 -1 37 -10 54 -20 38 -41 54 -31 23z"/>
<path d="M4150 3381 c0 -5 5 -13 10 -16 6 -3 10 -2 10 4 0 5 -4 13 -10 16 -5
3 -10 2 -10 -4z"/>
<path d="M4266 3093 c-6 -14 -5 -15 5 -6 7 7 10 15 7 18 -3 3 -9 -2 -12 -12z"/>
<path d="M4221 3079 c0 -8 6 -24 14 -35 13 -17 14 -17 15 -1 0 9 -4 17 -9 17
-5 0 -12 8 -14 18 -4 13 -5 14 -6 1z"/>
<path d="M4283 1895 c-17 -19 -16 -21 5 -21 10 0 19 8 19 18 2 21 -7 23 -24 3z"/>
<path d="M4285 1850 c-4 -6 -11 -7 -17 -4 -6 4 -8 2 -4 -4 3 -6 2 -13 -4 -17
-11 -7 -4 -25 8 -25 4 0 13 14 19 30 11 30 10 40 -2 20z"/>
<path d="M4230 1820 c-6 -11 -8 -20 -6 -20 3 0 10 9 16 20 6 11 8 20 6 20 -3
0 -10 -9 -16 -20z"/>
<path d="M4253 1775 c-3 -9 -3 -19 1 -22 3 -4 6 1 6 10 0 8 6 18 13 20 9 4 9
6 -1 6 -7 1 -15 -6 -19 -14z"/>
<path d="M3630 1040 c-9 -6 -10 -10 -3 -10 6 0 15 5 18 10 8 12 4 12 -15 0z"/>
<path d="M3676 1001 c-3 -5 1 -11 9 -15 15 -6 29 7 18 18 -9 9 -21 8 -27 -3z"/>
<path d="M3440 900 c-8 -5 -12 -12 -9 -15 4 -3 12 1 19 10 14 17 11 19 -10 5z"/>
<path d="M2828 693 c6 -2 18 -2 25 0 6 3 1 5 -13 5 -14 0 -19 -2 -12 -5z"/>
<path d="M2128 663 c7 -3 16 -2 19 1 4 3 -2 6 -13 5 -11 0 -14 -3 -6 -6z"/>
</g>
</svg>
